<svg xmlns="http://www.w3.org/2000/svg" xml:space="preserve" id="Layer_1" x="0" y="0" style="enable-background:new 0 0 858.5 242.6" version="1.1" viewBox="0 0 858.5 242.6"><style>.st0{fill:#fff}</style><path d="M39.3 101.3h-.1l22.7-45.6 22.7 45.6h-.1l6.9 13.8h15.5L61.9 25l-45.1 90.1h15.6zM216.9 101.3h-.1l22.8-45.6 22.7 45.6h-.2l6.9 13.8h15.5L239.6 25l-45.1 90.1H210zM194 70.1c0 24.8-20.1 45-45 45s-45.1-20.1-45.1-45S124.2 25 149 25c13.5 0 25.5 6 33.9 15.4l-11.1 11.1c-5.4-6.6-13.6-10.9-22.8-10.9-16.3 0-29.6 13.3-29.6 29.6s13.3 29.6 29.6 29.6c11.4 0 21.4-6.5 26.3-16.1h-20.9l-2.3-13.5H194zM295.3 25h15.2v90h-15.2V25zM379.8 100.8l-39.8-41v55.3h-13.6V25l53.4 55.3v20.5zM393.5 25v90l-13.6-14.1V25h13.6zM482.2 85c0 12.5-11.7 30.1-37.5 30.1-23.7 0-35.4-14.7-37.2-26.9l14.9-2.8c.2 3.6 4.3 14.7 22.4 14.7 18.5 0 22.4-11.9 22.4-15.1 0-3.6-7-7.5-22.4-7.5-34.8 0-37.5-17.2-37.5-22.5 0-12.4 11.7-30 37.5-30 23.7 0 35.4 14.7 37.2 26.8l-14.9 2.9c-.2-3.6-4.3-14.6-22.4-14.6-18.4 0-22.4 11.9-22.4 14.9 0 3.1 5.9 7.5 22.4 7.5 11.8 0 20.9 2 27.3 5.8 6.5 3.9 10.2 9.8 10.2 16.7zM485.1 40.2V25H570v15.2h-84.9zm50.1-.1v75H520v-78l15.2 3zM542.1 90.9V86H567v4.9h-24.9zm14.9-.6v24.5h-4.9V89.3l4.9 1zM589 101.2h-14.3v13.6h-4.8V86h4.8v10.3H588l1 4.9zm-2.5 13.6V86h4.8v28.7h-4.8zM614.4 114.8h-19.6V86h19.6v4.9h-14.8v5.4h11.1v4.9h-11.1v8.7h14.8v4.9zM747.5 39.6h6.5v178.2h-6.5zM677.5 23.3c-1.1.2-1.9.5-3.4 1.3s-2.4 1.2-3.6 2.5c-1.2 1.2-2 2.2-2.7 3.1-.7.9-1.1 2.3-1.1 3 0 .8 0 1.5.5 2.4.5.9 1.5 1.2 1.5 2.3.1 1.2 1.5 2.3 1.5 2.3s-.4.7-.7 1.1c-1 1.9-1.1 3.7 0 3.7s1.9-.2 1.9 1.1.2 1.1.2 1.1l.6 1c.2 1.4.6 3 1.9 3.2 2.2.4 4-1.7 4.9-.2.4.7 1 1.6 1.8 2.7s1.1 1.3.2 2.5c-.9 1.2-2.2 3-3.1 4.9-.9 1.9-1.9 4.2-2.3 5.3-.4 1.1-.6 1.5-1 2.3-.4.9-1.1.8-1.7.8-.6 0-1.7.2-1.9.6-.2.4-.1 1 .3 1.4.4.4.4.6-.4.8-.6.2-.7 1.4-.3 1.5.5.2.3.3-.1.7-.4.4-.5 1-.1 1.4.4.4.4.5-.2 1-.5.5-.4 1 .4 1.5.8.6.6.1.9.9.4.7 1.3 1 1.4 2.9.1 1.9.4 5.2.6 7 .2 1.8 1.2 7.4 1.8 9.3.5 1.9 1.3 7.1 1.6 8.3.3 1.1.6 1.7.8 2.7.2 1-.3 1.8-.8 2.6s-2 3-2.3 3.9c-.4.9-1.2 2.9-1.5 3.9-.4 1.1-1.2 4.5-1.3 5.5-.1 1-.7 3.4-1.2 5-.4 1.6-1.5 4.2-2.1 5.6-.6 1.5-2.6 6.4-3.5 7.6-.9 1.2-2.6 4.6-2.9 5.9-.3 1.3-2.1 5.2-2.5 6.2-.4 1.1-1.3 3.2-1.4 5.1-.1 1.9.1 2.7.8 3.2.8.7.8.6 1.6.9.8.3 1.5.1 1.3 1.1-.2 1-1.2 4-1.8 5.3-.6 1.2-1.9 4.5-2.4 5.8-.4 1.4-1.5 6.1-1.9 7.6-.4 1.5-1.6 4.7-1.9 5.7-.2.9-.5 1.1-.8 1.9-.3.8-1.9 3.4-2.4 4.3-.5.8-.8 1.3-2 1.7-1.2.4-2.1.7-3.1 1.2-1 .4-2.3.9-3.3 1.5s-2.3 1.3-3.2 1.5c-1 .2-2.2.4-3.4-.1-1.2-.5-1.8-.9-3.1-1.2-1.3-.3-1.9-.4-2.8-.3-.9.2-1.2.8-1.7 1.5-.4.7-.6 2.6.3 3.1.9.6 2.6 2.1 4.2 3.1 1.6 1.1 3.9 2.3 4.8 2.7.9.5 3.7 1.7 5.3 1.7 1.7 0 3.7.1 3.8 1 .1.8.3 1.5 2.1 1.9 1.8.5 2.7.9 4.2 1.2 1.5.3 2.6-.1 3.1-1.5s2.3-5.1 2.9-6.5c.5-1.4.4-2.8.8-4 .5-1.2 2.5-5.5 3.2-6.8.7-1.3 4.1-8.1 5.2-10.6 1.1-2.5 4.2-7.9 5.5-11 1.3-3.2.9-5.3 1.7-7.8.8-2.5 1.3-2.4 1.9-2.3.6.1 1.1-1 1.9-2.3.7-1.4 2.6-5.7 3.5-7.1.9-1.4 2-3.4 3.2-5.2 1.1-1.8 3.9-4.9 4.8-5.7.9-.9 1.4-.6 2 .3.7.9 3.8 4.8 4.8 6.3.9 1.5 3 4.1 3.8 5.5.9 1.5 3.1 4.3 4 5.3.8 1 3.2 3.3 4.2 4.6 1 1.4 1.9 2.1 2.8 1.6.9-.4 1-1.2 1.8.6.8 1.8 2 5.7 2.3 7.2.3 1.5.4 5 .6 6.2.2 1.1.9 3.2 1.3 4.6.4 1.4.6 1.3.9 2.4.3 1.1.2 2.1.5 3.2s1 4.5 1 5.5-.4 3.8-1.2 5c-.8 1.2-2.4 3.2-3 4.1-.6.8-2.1 2.4-2.8 3.1-.7.7-1.6 1.1-2.9 1.7-1.3.6-2.9.5-3.6 1.1-.7.5-1.1.8-.9 1.8.1.9 1.1 2 2.1 2.3 1 .3 3.4.4 4.7.4 1.4 0 5.5-.4 7-.6 1.5-.2 2.6-.7 3.2-1.2.6-.5 2.8-.5 3.5-.5.7 0 3.3-.1 4.7-.5 1.4-.4 3.4-.7 4.4-1.4 1-.7 1.1-3.3.6-4.4-.5-1.1-.9-2.3-1.7-3.7-.8-1.4-1.9-2.6-2.4-3.9-.4-1.3-1.1-3.2-1.6-5.2-.4-2-.8-4.8-.9-5.9-.1-1.1-.6-1-.6-2.9s-.3-4.2-.4-6.8c-.1-2.6 0-3.1-.3-5.8-.3-2.7-1.3-5.5-1.7-6.9-.4-1.4-.8-2.4-1.4-3.9-.6-1.5-.4-1.7.1-2.2.8-.8 1.5-1.1.7-2.5s-3.7-6.5-4.4-7.8c-.8-1.4-1.8-3.7-2.5-5.5-.7-1.8-1.1-2.9-1.8-5.3s-1-5-1.7-7.1c-.8-2.1-1.5-5.2-2.4-7.6-.8-2.4-1.5-3.9-1.5-6.1-.1-2.2.1-3.8.9-6.1s.8-3.2 1-5.4c.2-2.2.6-3.1 2.7-3.6s4-1.3 5.3-1.5c1.3-.2 3.3-.8 4.4-1.3 1.1-.5 1.9-1.6 2.7-2.8.8-1.1.5-.9 1.2-2.2.7-1.3 1.2-1.6 1.3-3.3.1-1.7.2-3.4.1-5.7 0-2.3-.3-11.1-.2-14.3.1-3.2.1-11.3.1-13.3s.4-2.6-.8-3.6c-1.2-1-4.4-2.3-6.1-3-1.8-.7-3.6-1.5-6-2.1-2.3-.7-3.8-1.1-5.3-1.5-1.5-.4-3.1-1.3-4.4-1.1-1.2.1-1.7.8-2.4 1.4-.7.6-1.2.5-1.9.4-.6-.1-1.1.2-1.5.4-.3.2-.4-.3-1.2-1-.8-.7-2.3-2-3-2.5-.7-.4-1.2-.6-2.3-.8-1-.2-1.3-.3-2.1-.9-.7-.6-.6-.5-1.1-.8-.5-.4-1.1 0-1.5-.5-.4-.6-1.1-1.5-1.4-2.1-.3-.6-.5-.8-.4-2.5.1-1.8.4-3 .4-4.3 0-1.2.5-1.9.3-2.9-.1-1 0-1.4-.4-2.7-.4-1.3-.8-2.5-1.4-3.6-.6-1.1-1.6-2.8-2.4-3.5-.9-.7-.9-1-2.1-1.5-1.1-.5-2.1-.5-2.9-.5h-1.9c-.4.1-.8.2-2 .4z" class="st0"/><path d="M666.4 29s-.3 2.6 1 3.8l9.4-6.5s.4-1-.3-1.7c-.7-.6-.1-.2-.9-.1s-3.5.8-4 1.5c-.4.6.6-.4-.4.2-1.1.6-2.7 2-3.1 1.1-.2-.4-.5 1.4-1 .7-.6-.8-.6.4-.7 1zM810.5 59.8h2l-1-7.6z" class="st0"/><path d="m841.7 56.9-20.4-23.6v6.2h-73.8v35.3h73.8v5.6l20.4-23.5zm-80.4-6.2h-2.5v15.6h-2.6V50.7h-2.5v-2.6h7.5v2.6zm9.2 15.6h-2.6v-7.8h-2.3v7.8H763V48.1h2.6v7.8h2.3v-7.8h2.6v18.2zm5.1 0H773V48.1h2.6v18.2zm9.8-12.2h-2.6v-2.5c0-.8-.4-1.2-1.1-1.2-.8 0-1.1.4-1.1 1.2v1.7c0 .8.8 1.8 2.5 3 1.6 1.2 2.5 2.6 2.5 4.2v2.3c0 2.6-1.3 3.8-3.8 3.8s-3.8-1.3-3.8-3.8v-2.5h2.6v2.5c0 .8.4 1.2 1.2 1.2.8 0 1.1-.4 1.1-1.2v-2.1c0-.9-.8-1.9-2.5-3.1-1.6-1.2-2.5-2.6-2.5-4.3v-1.7c0-2.5 1.3-3.8 3.8-3.8s3.8 1.3 3.8 3.8v2.5zm20.6.4-1.8 11.8h-3.6l-1.4-9.4-1.4 9.4h-3.6l-1.9-11.8-.9-6.4h2.6l1.9 14 1.9-14h2.6l1.9 14 1.9-14h2.7l-.9 6.4zm7.4 11.8-.5-3.9h-2.7l-.5 3.9H807l.9-6.4 1.9-11.8h3.6l1.8 11.8.9 6.5h-2.7zm6.3 0v-7.7l-.1-.2-3.2-10.3h2.8l1.8 7.1 1.8-7.1h2.8l-3.2 10.3-.1.2v7.7h-2.6zM93.7 200.2c-8.2 8.1-19.4 13.1-31.8 13.1-24.9 0-45.1-20.1-45.1-45s20.1-45.1 45.1-45.1c12.4 0 23.7 5 31.8 13.3l-10.9 10.9c-5.4-5.4-12.8-8.7-20.9-8.7-16.3 0-29.6 13.3-29.6 29.6 0 16.2 13.3 29.5 29.6 29.5 8.1 0 15.5-3.3 20.9-8.6l10.9 11zM186.9 168.4c0 24.8-20.1 45-45 45-24.8 0-45.1-20.1-45.1-45s20.3-45.1 45.1-45.1c24.9 0 45 20.2 45 45.1zM142 138.8c-16.3 0-29.6 13.3-29.6 29.6S125.7 198 142 198s29.6-13.3 29.6-29.6-13.3-29.6-29.6-29.6zM193.9 213.4l11.3-90 27.1 45.6 14.5 24.4-8 13.3L227 187l-13.1-22.4-6.1 48.8h-13.9zm44.8-33.3 34.3-56.8 11.1 90h-13.9l-5.9-48.9-13.7 22.6-4 6.6-7.9-13.5zM365.5 156.9c0 18.4-15 33.4-33.4 33.4h-23.3l-2.9-15.1h26.3c10.1 0 18.3-8.2 18.3-18.3 0-10.1-8.2-18.3-18.3-18.3h-21v74.8H296V123.4h36.1c18.5-.1 33.4 14.9 33.4 33.5zM379.2 199.6h-.1l22.7-45.6 22.7 45.6h-.1l6.8 13.8h15.6l-45-90.1-45.1 90.1h15.6zM512.3 170.1c-6.4 3.8-15.5 5.8-27.3 5.8-16.5 0-22.4 4.4-22.4 7.5 0 2.9 3.9 14.9 22.4 14.9 18.1 0 22.1-11.1 22.4-14.6l14.9 2.9c-1.8 12-13.5 26.8-37.2 26.8-25.8 0-37.5-17.6-37.5-30 0-5.3 2.7-22.5 37.5-22.5 15.3 0 22.4-3.9 22.4-7.5 0-3.2-3.8-15.1-22.4-15.1-18.1 0-22.1 11.2-22.4 14.7l-14.9-2.8c1.8-12.2 13.5-26.9 37.2-26.9 25.8 0 37.5 17.6 37.5 30.1 0 6.9-3.7 12.8-10.2 16.7zM542.3 166.6c6.4-3.8 15.5-5.8 27.3-5.8 16.5 0 22.4-4.4 22.4-7.5 0-3-3.9-14.9-22.4-14.9-18.1 0-22.1 11.1-22.4 14.6l-14.9-2.9c1.8-12 13.5-26.8 37.2-26.8 25.8 0 37.5 17.6 37.5 30 0 5.3-2.7 22.5-37.5 22.5-15.3 0-22.4 3.9-22.4 7.5 0 3.2 3.8 15.1 22.4 15.1 18.1 0 22.1-11.2 22.4-14.7l14.9 2.8c-1.8 12.2-13.5 26.9-37.2 26.9-25.8 0-37.5-17.6-37.5-30.1 0-6.9 3.7-12.8 10.2-16.7z" class="st0"/><path d="m137.1 174-12.7-23.6 22 15.2z" class="st0"/><path d="m146.2 165.5 12.7 23.5-22-15.2z" class="st0"/><path d="M141.1 175.3c-3.2-.2-5.6-2.9-5.4-6 .2-3.2 2.9-5.6 6-5.4 3.2.2 5.6 2.9 5.4 6-.1 3.1-2.8 5.5-6 5.4z" style="fill:#fff;stroke:#487629;stroke-width:2.7923;stroke-miterlimit:10"/></svg>